<svg xmlns="http://www.w3.org/2000/svg" viewBox="0 0 395.47 65.68"><defs><style>.cls-1{fill:#fff;}.cls-2{fill:#fcce0d;}</style></defs><title>AI-hs-icon</title><g id="Layer_2" data-name="Layer 2"><g id="Layer_1-2" data-name="Layer 1"><path class="cls-1" d="M115.14,18.84h4.11L128,44.58h-3.1l-2.52-7.38H111.72l-2.48,7.38h-2.95Zm-2.55,15.84h8.93l-4.47-13.24Z"/><path class="cls-1" d="M133.11,18.84h3.13V44.58h-3.13Z"/><path class="cls-1" d="M152.87,18.84H156V30.51h13.54V18.84h3.13V44.58h-3.13V33.14H156V44.58h-3.13Z"/><path class="cls-1" d="M187.07,44.91a9.45,9.45,0,0,1-3.67-.69,8.37,8.37,0,0,1-4.77-4.93,10.86,10.86,0,0,1-.67-3.92v-.29a11.41,11.41,0,0,1,.65-3.91,9.18,9.18,0,0,1,1.82-3.06,8.16,8.16,0,0,1,2.79-2,9,9,0,0,1,3.56-.7,9.64,9.64,0,0,1,3.15.53,7.4,7.4,0,0,1,2.72,1.65,7.94,7.94,0,0,1,1.89,2.92,11.84,11.84,0,0,1,.7,4.33v1H181.06a7.44,7.44,0,0,0,1.62,4.87,5.65,5.65,0,0,0,4.43,1.68q4.42,0,5-3.21h3a6.23,6.23,0,0,1-2.67,4.28A9.36,9.36,0,0,1,187.07,44.91Zm5.11-11.56a5.89,5.89,0,0,0-1.64-4.15A5.49,5.49,0,0,0,186.78,28,5.13,5.13,0,0,0,183,29.4a6.9,6.9,0,0,0-1.85,4Z"/><path class="cls-1" d="M205.14,44.91a8.9,8.9,0,0,1-2.45-.33,5.49,5.49,0,0,1-2-1,4.89,4.89,0,0,1-1.34-1.73,6,6,0,0,1-.48-2.49,4.56,4.56,0,0,1,.79-2.73,5.81,5.81,0,0,1,2.11-1.8,10.21,10.21,0,0,1,3-1,20.27,20.27,0,0,1,3.51-.31H211V32.17a4.55,4.55,0,0,0-.94-3.23A4.09,4.09,0,0,0,207,28q-3.89,0-4.32,3.35h-3a6.18,6.18,0,0,1,.81-2.73,5.58,5.58,0,0,1,1.69-1.82,6.77,6.77,0,0,1,2.31-1,11,11,0,0,1,2.64-.31,10.62,10.62,0,0,1,2.59.31,5.34,5.34,0,0,1,2.2,1.08,5.53,5.53,0,0,1,1.51,2.07,8,8,0,0,1,.58,3.27V44.58h-3V42.21a7,7,0,0,1-2.41,2A7.7,7.7,0,0,1,205.14,44.91Zm.29-2.38a7.82,7.82,0,0,0,2.21-.3,5.26,5.26,0,0,0,1.77-.89A4.1,4.1,0,0,0,211,38V35.66h-2.59a16.33,16.33,0,0,0-2.61.19,8.05,8.05,0,0,0-2.09.63,3.53,3.53,0,0,0-1.37,1.14,3,3,0,0,0-.48,1.74,3.27,3.27,0,0,0,.79,2.33A3.7,3.7,0,0,0,205.43,42.53Z"/><path class="cls-1" d="M220.37,16.76h3V44.58h-3Z"/><path class="cls-1" d="M235.67,44.84a5,5,0,0,1-3.84-1.37,5.18,5.18,0,0,1-1.24-3.6V28.28h-2.7V25.76h2.7V21.47h3v4.29H238v2.52h-4.39v11.3c0,1.82.78,2.74,2.34,2.74a6.64,6.64,0,0,0,1.26-.11,6.92,6.92,0,0,0,1-.29v2.52a5.81,5.81,0,0,1-1,.29A8.66,8.66,0,0,1,235.67,44.84Z"/><path class="cls-1" d="M243.16,16.76h3v12a6,6,0,0,1,2.18-2.32,7,7,0,0,1,3.87-1,8.21,8.21,0,0,1,2.67.42,5.16,5.16,0,0,1,2.1,1.33,6.13,6.13,0,0,1,1.37,2.36,11.08,11.08,0,0,1,.49,3.49V44.58h-3V32.76a5.22,5.22,0,0,0-1.08-3.65A4.39,4.39,0,0,0,251.4,28a6.08,6.08,0,0,0-2,.33,4.89,4.89,0,0,0-1.67,1,4.71,4.71,0,0,0-1.15,1.63,5.46,5.46,0,0,0-.44,2.24V44.58h-3Z"/><path class="cls-1" d="M283.19,44.91a12.45,12.45,0,0,1-4.38-.67,8.42,8.42,0,0,1-2.93-1.78,7.47,7.47,0,0,1-1.75-2.59,12.06,12.06,0,0,1-.77-3.13h3a10.74,10.74,0,0,0,.51,2.17,4.78,4.78,0,0,0,1.11,1.8,5.23,5.23,0,0,0,2,1.23,9.51,9.51,0,0,0,3.19.45,7.53,7.53,0,0,0,2.3-.34,5.57,5.57,0,0,0,1.87-1,4.78,4.78,0,0,0,1.25-1.55,4.36,4.36,0,0,0,.45-2,5.69,5.69,0,0,0-.29-1.89,3.14,3.14,0,0,0-1-1.39,6,6,0,0,0-1.91-1,20.07,20.07,0,0,0-3-.68,25.58,25.58,0,0,1-3.62-.83,9.57,9.57,0,0,1-2.72-1.32,5.27,5.27,0,0,1-1.69-2,6.85,6.85,0,0,1-.58-2.94,6.26,6.26,0,0,1,.62-2.75,6.43,6.43,0,0,1,1.71-2.21,8.11,8.11,0,0,1,2.61-1.48,9.83,9.83,0,0,1,3.34-.54,9.67,9.67,0,0,1,6.18,1.82,7.49,7.49,0,0,1,2.68,5.27h-2.81a5.41,5.41,0,0,0-1.91-3.51A7,7,0,0,0,282.5,21a6,6,0,0,0-4,1.17,3.8,3.8,0,0,0-1.35,3,5.71,5.71,0,0,0,.23,1.67,2.74,2.74,0,0,0,.9,1.28,6.08,6.08,0,0,0,1.88.95,17.51,17.51,0,0,0,3.18.7,23,23,0,0,1,3.78.87,9.4,9.4,0,0,1,2.74,1.4,5.49,5.49,0,0,1,1.67,2.13,7.65,7.65,0,0,1,.56,3.09,6.77,6.77,0,0,1-.67,3,7.34,7.34,0,0,1-1.85,2.41,8.59,8.59,0,0,1-2.83,1.6A10.43,10.43,0,0,1,283.19,44.91Z"/><path class="cls-1" d="M302.56,42.64l-7.38-16.88h3.2l5.76,13.5,5.22-13.5h3.06L302,51.14h-3Z"/><path class="cls-1" d="M322.61,44.91a8,8,0,0,1-5.31-1.61,6,6,0,0,1-2.07-4.55h2.91a4.24,4.24,0,0,0,1.17,2.67,4.54,4.54,0,0,0,3.26,1,5.22,5.22,0,0,0,3.13-.74,2.61,2.61,0,0,0,1-2.23,2.27,2.27,0,0,0-1.1-2.12,10.59,10.59,0,0,0-3.3-1,18.77,18.77,0,0,1-3.09-.77,6.5,6.5,0,0,1-2-1.1,3.84,3.84,0,0,1-1.1-1.55,5.89,5.89,0,0,1-.34-2.12,4.39,4.39,0,0,1,.58-2.28,5.38,5.38,0,0,1,1.49-1.66,6.74,6.74,0,0,1,2.05-1,7.75,7.75,0,0,1,2.25-.35,10.47,10.47,0,0,1,2.41.27,5.9,5.9,0,0,1,2.07.93,5.27,5.27,0,0,1,1.54,1.7,6.76,6.76,0,0,1,.79,2.57H326a3.64,3.64,0,0,0-1.25-2.25,4.45,4.45,0,0,0-2.71-.7,4.22,4.22,0,0,0-2.6.74,2.34,2.34,0,0,0-1,1.95,2.72,2.72,0,0,0,.2,1.09,1.92,1.92,0,0,0,.7.79,5.35,5.35,0,0,0,1.35.61,15.52,15.52,0,0,0,2.14.48c1,.2,1.85.4,2.67.63a7.11,7.11,0,0,1,2.1.94A4,4,0,0,1,329,36.72a5.37,5.37,0,0,1,.49,2.47,5.32,5.32,0,0,1-1.73,4.15A7.46,7.46,0,0,1,322.61,44.91Z"/><path class="cls-1" d="M340.21,44.84a4.91,4.91,0,0,1-3.83-1.37,5.13,5.13,0,0,1-1.24-3.6V28.28h-2.71V25.76h2.71V21.47h3v4.29h4.39v2.52h-4.39v11.3c0,1.82.78,2.74,2.34,2.74a6.64,6.64,0,0,0,1.26-.11,7.4,7.4,0,0,0,1-.29v2.52a5.92,5.92,0,0,1-1,.29A8.66,8.66,0,0,1,340.21,44.84Z"/><path class="cls-1" d="M355.4,44.91a9.45,9.45,0,0,1-3.67-.69,8.56,8.56,0,0,1-2.88-1.92,8.38,8.38,0,0,1-1.89-3,11.08,11.08,0,0,1-.67-3.92v-.29a11.41,11.41,0,0,1,.65-3.91,9.18,9.18,0,0,1,1.82-3.06,8.16,8.16,0,0,1,2.79-2,9,9,0,0,1,3.56-.7,9.64,9.64,0,0,1,3.15.53A7.4,7.4,0,0,1,361,27.61a7.94,7.94,0,0,1,1.89,2.92,11.84,11.84,0,0,1,.7,4.33v1H349.39A7.44,7.44,0,0,0,351,40.71a5.65,5.65,0,0,0,4.43,1.68q4.43,0,5-3.21h3a6.22,6.22,0,0,1-2.66,4.28A9.4,9.4,0,0,1,355.4,44.91Zm5.11-11.56a5.93,5.93,0,0,0-1.63-4.15A5.53,5.53,0,0,0,355.11,28a5.13,5.13,0,0,0-3.76,1.45,6.9,6.9,0,0,0-1.85,4Z"/><path class="cls-1" d="M368.58,25.76h3v2.88a5.6,5.6,0,0,1,2.1-2.27,6.3,6.3,0,0,1,3.51-.94,6.73,6.73,0,0,1,3.31.81,4.92,4.92,0,0,1,2.2,2.72,5.49,5.49,0,0,1,1.22-1.57,7.67,7.67,0,0,1,1.62-1.09,7.92,7.92,0,0,1,1.8-.65,7.76,7.76,0,0,1,1.8-.22,7.53,7.53,0,0,1,2.42.4,5.07,5.07,0,0,1,2,1.29A6.66,6.66,0,0,1,395,29.45a10.07,10.07,0,0,1,.52,3.47V44.58h-3V32.65a5.19,5.19,0,0,0-1-3.59,3.86,3.86,0,0,0-3-1.11,5.61,5.61,0,0,0-1.82.31,4.75,4.75,0,0,0-1.59.94A4.81,4.81,0,0,0,384,30.79a5.33,5.33,0,0,0-.43,2.22V44.58h-3V32.65a5.13,5.13,0,0,0-1-3.59,3.83,3.83,0,0,0-3-1.11,5.55,5.55,0,0,0-1.81.31,4.75,4.75,0,0,0-1.59.94A4.67,4.67,0,0,0,372,30.79a5.33,5.33,0,0,0-.43,2.22V44.58h-3Z"/><path class="cls-2" d="M0,18.9c.11-.75.17-1.51.34-2.24A20.73,20.73,0,0,1,12.12,2a20.19,20.19,0,0,1,15.75-.76,18.86,18.86,0,0,1,6.86,4.5C35.5,6.48,36.26,7.25,37,8l.45.42C38.57,7.27,39.6,6.06,40.75,5A17.63,17.63,0,0,1,50.57.27,20.25,20.25,0,0,1,67.21,5.15a21.12,21.12,0,0,1,6.22,9.15.7.7,0,0,1,0,.55c-1.26,2-2.54,3.89-3.81,5.84l-.17.22c-.13-.88-.23-1.69-.37-2.5A15.06,15.06,0,0,0,59.92,6.9,15.36,15.36,0,0,0,49.49,6a15.06,15.06,0,0,0-9.58,7.35c-.81,1.42-1.6,2.85-2.4,4.28,0,.07-.09.14-.18.27-.11-.17-.21-.31-.29-.45-.95-1.67-1.83-3.39-2.87-5a15,15,0,0,0-9.7-6.61,22.64,22.64,0,0,0-4.81-.21C15,5.64,8.73,9.24,6.42,15.39a14.9,14.9,0,0,0,0,10.76,36,36,0,0,0,4.9,8.76A83.7,83.7,0,0,0,22,46.46a185.6,185.6,0,0,0,15.1,12.35,2.79,2.79,0,0,0,.31.2A147.82,147.82,0,0,0,49.2,49.84C52.89,46.5,56.44,43,60.06,39.55L62,44c.33.77.32.76-.26,1.35A175.67,175.67,0,0,1,38.32,65.15c-1,.7-1,.7-1.94,0A159.79,159.79,0,0,1,11.7,44.08a52.87,52.87,0,0,1-9-12.51A27.45,27.45,0,0,1,.23,24.26c-.12-.66-.16-1.33-.23-2Z"/><path class="cls-2" d="M48.39,32.36q4.3-10,8.58-19.9h.17l8.57,19.73C68.16,28.39,70.55,24.67,73,21l.15.05c.33,1.12.68,2.24,1,3.37,1.31,4.42,2.63,8.85,3.93,13.28a.53.53,0,0,0,.63.44c1.75,0,3.5,0,5.25,0h.5v5.43l-.42,0c-3.16,0-6.32,0-9.48,0a.49.49,0,0,1-.56-.42c-.86-2.93-1.74-5.86-2.61-8.78,0-.11-.07-.22-.14-.44-2.29,3.28-4.28,6.66-6.44,10L57.16,26.23l-.18,0C54.46,32,52,37.86,49.41,43.76c-1.86-2.76-3.68-5.46-5.55-8.25-.15.24-.25.39-.34.55-1.2,2.36-2.42,4.72-3.61,7.09a.61.61,0,0,1-.65.4c-3.87,0-7.75,0-11.63,0h-.46V38.09h8.72a.59.59,0,0,0,.62-.38q3.1-6.18,6.23-12.33c.11-.22.25-.44.44-.76Z"/></g></g></svg>