<svg xmlns="http://www.w3.org/2000/svg" xmlns:xlink="http://www.w3.org/1999/xlink" viewBox="0 0 509.69 174.05"><defs><style>.cls-1{fill:#fff;}.cls-2{fill:#085aff;}.cls-3{fill:url(#linear-gradient);}.cls-4{fill:url(#linear-gradient-2);}</style><linearGradient id="linear-gradient" x1="1.59" y1="14.82" x2="201.53" y2="14.82" gradientUnits="userSpaceOnUse"><stop offset="0" stop-color="#f9ca87"/><stop offset="1" stop-color="#f06e7c"/></linearGradient><linearGradient id="linear-gradient-2" x1="1.59" y1="48.89" x2="131.25" y2="48.89" xlink:href="#linear-gradient"/></defs><title>AI-hs-content-left</title><g id="Layer_2" data-name="Layer 2"><g id="Layer_1-2" data-name="Layer 1"><path class="cls-1" d="M22.08,167.58H17.25l-1.92-5H6.53l-1.82,5H0l8.57-22h4.7Zm-8.18-8.71-3-8.16-3,8.16Z"/><path class="cls-1" d="M24.3,167.58v-22h4.45v22Z"/><path class="cls-1" d="M41.54,167.58v-22H46v8.66h8.71v-8.66h4.44v22H54.69V158H46v9.62Z"/><path class="cls-1" d="M72.93,162.51l4.2.7a6.85,6.85,0,0,1-2.56,3.52,7.46,7.46,0,0,1-4.37,1.21c-2.78,0-4.83-.9-6.16-2.72a9.12,9.12,0,0,1-1.57-5.49,8.82,8.82,0,0,1,2.07-6.21,6.84,6.84,0,0,1,5.24-2.24,7.06,7.06,0,0,1,5.61,2.35q2.06,2.34,2,7.19H66.79a4.24,4.24,0,0,0,1,2.92,3.18,3.18,0,0,0,2.43,1,2.59,2.59,0,0,0,1.67-.54A3.33,3.33,0,0,0,72.93,162.51Zm.24-4.27a4,4,0,0,0-1-2.78,2.88,2.88,0,0,0-2.19-1,2.92,2.92,0,0,0-2.28,1,3.89,3.89,0,0,0-.89,2.73Z"/><path class="cls-1" d="M84,156.5l-3.83-.69a6,6,0,0,1,2.22-3.42A8.14,8.14,0,0,1,87,151.28a10,10,0,0,1,4.2.67,4.15,4.15,0,0,1,1.94,1.69,8.64,8.64,0,0,1,.57,3.78l0,4.92a17.61,17.61,0,0,0,.2,3.1,9.22,9.22,0,0,0,.76,2.14H90.48c-.11-.28-.25-.69-.41-1.25-.07-.25-.12-.41-.15-.49a7.62,7.62,0,0,1-2.31,1.58,6.6,6.6,0,0,1-2.63.52,5.44,5.44,0,0,1-3.88-1.33,4.48,4.48,0,0,1-1.42-3.38,4.53,4.53,0,0,1,.65-2.41,4.13,4.13,0,0,1,1.81-1.62,13.86,13.86,0,0,1,3.36-1,23,23,0,0,0,4.09-1v-.42A2.21,2.21,0,0,0,89,155a3.62,3.62,0,0,0-2.26-.51A3,3,0,0,0,85,155,3,3,0,0,0,84,156.5Zm5.64,3.42a25.84,25.84,0,0,1-2.56.65,7.74,7.74,0,0,0-2.3.74,1.75,1.75,0,0,0-.83,1.48,2.07,2.07,0,0,0,.66,1.53,2.32,2.32,0,0,0,1.69.65,3.64,3.64,0,0,0,2.17-.75,2.66,2.66,0,0,0,1-1.4,8.35,8.35,0,0,0,.16-2Z"/><path class="cls-1" d="M97.89,167.58v-22h4.22v22Z"/><path class="cls-1" d="M113.75,151.64V155h-2.88v6.43a15.35,15.35,0,0,0,.08,2.27.9.9,0,0,0,.37.53,1.22,1.22,0,0,0,.72.21,5.39,5.39,0,0,0,1.69-.4l.36,3.27a8.38,8.38,0,0,1-3.33.63,5.4,5.4,0,0,1-2.06-.38,3,3,0,0,1-1.34-1,3.9,3.9,0,0,1-.59-1.65,20.19,20.19,0,0,1-.14-3V155H104.7v-3.36h1.93v-3.17l4.24-2.46v5.63Z"/><path class="cls-1" d="M120.88,145.57v8.09a6.32,6.32,0,0,1,7.5-1.84,4.28,4.28,0,0,1,1.77,1.38,5.17,5.17,0,0,1,.81,1.86,17.07,17.07,0,0,1,.22,3.17v9.35H127v-8.42a12.46,12.46,0,0,0-.24-3.18,2.1,2.1,0,0,0-.85-1.08,2.77,2.77,0,0,0-1.52-.39,3.51,3.51,0,0,0-1.88.51,3,3,0,0,0-1.21,1.53,9.37,9.37,0,0,0-.38,3v8h-4.22v-22Z"/><path class="cls-1" d="M142.9,160.42l4.32-.42a5.26,5.26,0,0,0,1.59,3.2,4.78,4.78,0,0,0,3.22,1,4.9,4.9,0,0,0,3.23-.91,2.69,2.69,0,0,0,1.09-2.12,2,2,0,0,0-.46-1.33,3.55,3.55,0,0,0-1.59-1c-.52-.18-1.71-.5-3.56-1a12.12,12.12,0,0,1-5-2.17,5.73,5.73,0,0,1-2-4.43,5.65,5.65,0,0,1,1-3.15A6,6,0,0,1,147.4,146a11,11,0,0,1,4.33-.76q4.14,0,6.24,1.81a6.49,6.49,0,0,1,2.2,4.85l-4.45.2a3.79,3.79,0,0,0-1.22-2.44,4.48,4.48,0,0,0-2.82-.74,5.07,5.07,0,0,0-3,.79A1.61,1.61,0,0,0,148,151a1.68,1.68,0,0,0,.66,1.33,11.67,11.67,0,0,0,4.08,1.47,21.92,21.92,0,0,1,4.8,1.59,6.23,6.23,0,0,1,2.43,2.23,6.62,6.62,0,0,1,.88,3.51,6.48,6.48,0,0,1-1.05,3.54,6.41,6.41,0,0,1-3,2.46,12.55,12.55,0,0,1-4.79.8q-4.17,0-6.41-1.93A8.38,8.38,0,0,1,142.9,160.42Z"/><path class="cls-1" d="M162.51,151.64H167L170.81,163l3.72-11.32h4.37L173.27,167l-1,2.78a12.29,12.29,0,0,1-1.06,2.13,4.54,4.54,0,0,1-1.16,1.19,4.88,4.88,0,0,1-1.61.72,8.3,8.3,0,0,1-2.15.25,11.21,11.21,0,0,1-2.39-.25l-.37-3.31a9.31,9.31,0,0,0,1.78.2,2.64,2.64,0,0,0,2.18-.87,5.91,5.91,0,0,0,1.08-2.19Z"/><path class="cls-1" d="M180.12,163l4.23-.64a3.13,3.13,0,0,0,1.1,1.87,3.73,3.73,0,0,0,2.31.63,4.17,4.17,0,0,0,2.46-.6,1.33,1.33,0,0,0,.56-1.12,1.13,1.13,0,0,0-.31-.8,3.37,3.37,0,0,0-1.41-.55q-5.1-1.12-6.47-2.06a4.11,4.11,0,0,1-1.89-3.59,4.42,4.42,0,0,1,1.64-3.48,7.63,7.63,0,0,1,5.07-1.41,8.91,8.91,0,0,1,4.87,1.06,5.47,5.47,0,0,1,2.19,3.16l-4,.73a2.43,2.43,0,0,0-1-1.42,3.52,3.52,0,0,0-2-.5,4.59,4.59,0,0,0-2.39.47,1,1,0,0,0-.48.85.94.94,0,0,0,.42.77,15.86,15.86,0,0,0,3.94,1.18,11.72,11.72,0,0,1,4.71,1.88A3.91,3.91,0,0,1,195,162.6a4.8,4.8,0,0,1-1.83,3.76,8.06,8.06,0,0,1-5.42,1.58,8.92,8.92,0,0,1-5.16-1.32A6.07,6.07,0,0,1,180.12,163Z"/><path class="cls-1" d="M206,151.64V155h-2.88v6.43a17.09,17.09,0,0,0,.08,2.27.91.91,0,0,0,.38.53,1.17,1.17,0,0,0,.71.21,5.44,5.44,0,0,0,1.7-.4l.36,3.27a8.38,8.38,0,0,1-3.33.63,5.36,5.36,0,0,1-2.06-.38,3.13,3.13,0,0,1-1.35-1,4,4,0,0,1-.59-1.65,20.68,20.68,0,0,1-.13-3V155H197v-3.36h1.94v-3.17l4.23-2.46v5.63Z"/><path class="cls-1" d="M218.17,162.51l4.21.7a7,7,0,0,1-2.56,3.52,7.51,7.51,0,0,1-4.38,1.21c-2.77,0-4.82-.9-6.15-2.72a9.06,9.06,0,0,1-1.58-5.49,8.82,8.82,0,0,1,2.07-6.21,6.84,6.84,0,0,1,5.24-2.24,7.06,7.06,0,0,1,5.61,2.35c1.38,1.56,2,4,2,7.19H212a4.24,4.24,0,0,0,1,2.92,3.19,3.19,0,0,0,2.44,1,2.57,2.57,0,0,0,1.66-.54A3.33,3.33,0,0,0,218.17,162.51Zm.24-4.27a4,4,0,0,0-.94-2.78,2.88,2.88,0,0,0-2.19-1,2.93,2.93,0,0,0-2.29,1,3.89,3.89,0,0,0-.88,2.73Z"/><path class="cls-1" d="M225.72,151.64h3.89v2.17a6.26,6.26,0,0,1,5-2.53,5.37,5.37,0,0,1,2.66.63,4.82,4.82,0,0,1,1.84,1.9,7.35,7.35,0,0,1,2.27-1.9,5.58,5.58,0,0,1,2.6-.63,5.83,5.83,0,0,1,3,.71,4.39,4.39,0,0,1,1.82,2.09,9.2,9.2,0,0,1,.43,3.31v10.19H245v-9.11a6.8,6.8,0,0,0-.43-3.06,2,2,0,0,0-1.8-.9,2.89,2.89,0,0,0-1.67.54,3,3,0,0,0-1.13,1.58,11.38,11.38,0,0,0-.34,3.29v7.66h-4.22v-8.74a12.2,12.2,0,0,0-.22-3,1.93,1.93,0,0,0-.7-1,2.17,2.17,0,0,0-1.29-.33,3.05,3.05,0,0,0-1.75.52,2.87,2.87,0,0,0-1.12,1.52,11,11,0,0,0-.34,3.28v7.75h-4.22Z"/><path class="cls-1" d="M262.35,174.05V145.2h3.35v28.85Z"/><path class="cls-2" d="M279.23,167.58v-22h7.58a18.36,18.36,0,0,1,3.92.32,7.42,7.42,0,0,1,3.22,1.57,8.93,8.93,0,0,1,2.61,3.77,14.82,14.82,0,0,1,.86,5.23,15.37,15.37,0,0,1-.58,4.44,10.64,10.64,0,0,1-1.51,3.21,7.86,7.86,0,0,1-2,2,8,8,0,0,1-2.63,1.11,15,15,0,0,1-3.53.37Zm2.91-2.6h4.7a11.38,11.38,0,0,0,3.41-.4,4.88,4.88,0,0,0,2-1.14,6.87,6.87,0,0,0,1.61-2.79,13.45,13.45,0,0,0,.58-4.24,10.26,10.26,0,0,0-1.13-5.3,5.73,5.73,0,0,0-2.76-2.49,11.41,11.41,0,0,0-3.77-.45h-4.62Z"/><path class="cls-2" d="M301.1,148.68v-3.11h2.7v3.11Zm0,18.9V151.64h2.7v15.94Z"/><path class="cls-2" d="M307.42,168.9l2.63.39a2.5,2.5,0,0,0,.91,1.77,4.51,4.51,0,0,0,2.75.75,4.84,4.84,0,0,0,2.9-.75A3.69,3.69,0,0,0,318,169a17.37,17.37,0,0,0,.19-3.47,5.53,5.53,0,0,1-4.41,2.09,6,6,0,0,1-5.09-2.37,9.14,9.14,0,0,1-1.8-5.69,10.41,10.41,0,0,1,.83-4.21,6.3,6.3,0,0,1,6.08-4,5.71,5.71,0,0,1,4.65,2.28v-1.92h2.49v13.78a13,13,0,0,1-.76,5.28,5.51,5.51,0,0,1-2.4,2.45,8.33,8.33,0,0,1-4,.9,7.64,7.64,0,0,1-4.6-1.28A4.36,4.36,0,0,1,307.42,168.9Zm2.24-9.58a6.91,6.91,0,0,0,1.24,4.58,4.12,4.12,0,0,0,6.25,0,6.7,6.7,0,0,0,1.26-4.5,6.51,6.51,0,0,0-1.3-4.41,4,4,0,0,0-3.13-1.49,3.89,3.89,0,0,0-3.06,1.47A6.48,6.48,0,0,0,309.66,159.32Z"/><path class="cls-2" d="M325,148.68v-3.11h2.7v3.11Zm0,18.9V151.64h2.7v15.94Z"/><path class="cls-2" d="M337.74,165.16l.39,2.39a10,10,0,0,1-2,.24,4.62,4.62,0,0,1-2.28-.46,2.6,2.6,0,0,1-1.14-1.23,9.66,9.66,0,0,1-.33-3.19v-9.17h-2v-2.1h2v-3.95l2.69-1.62v5.57h2.71v2.1H335v9.32a4.94,4.94,0,0,0,.14,1.49,1.07,1.07,0,0,0,.47.52,1.77,1.77,0,0,0,.92.2A8.86,8.86,0,0,0,337.74,165.16Z"/><path class="cls-2" d="M350.79,165.61a10,10,0,0,1-2.89,1.81,8.37,8.37,0,0,1-3,.52,5.83,5.83,0,0,1-4-1.28,4.25,4.25,0,0,1-1.41-3.28,4.45,4.45,0,0,1,1.93-3.7,6.59,6.59,0,0,1,1.94-.88,19,19,0,0,1,2.41-.41,24.91,24.91,0,0,0,4.82-.93c0-.37,0-.6,0-.7a3,3,0,0,0-.77-2.33,4.5,4.5,0,0,0-3.07-.92,4.84,4.84,0,0,0-2.82.67,4.14,4.14,0,0,0-1.34,2.37l-2.64-.36a6.52,6.52,0,0,1,1.18-2.74,5.22,5.22,0,0,1,2.39-1.61,10.79,10.79,0,0,1,3.62-.56,9.64,9.64,0,0,1,3.32.48,4.31,4.31,0,0,1,1.87,1.21,4.23,4.23,0,0,1,.84,1.84,15,15,0,0,1,.14,2.49v3.6a37.59,37.59,0,0,0,.17,4.77,5.91,5.91,0,0,0,.68,1.91h-2.82A5.75,5.75,0,0,1,350.79,165.61Zm-.22-6a20.07,20.07,0,0,1-4.42,1,10.26,10.26,0,0,0-2.36.54,2.36,2.36,0,0,0-.62,4,3.53,3.53,0,0,0,2.4.72,5.5,5.5,0,0,0,2.77-.68,4.19,4.19,0,0,0,1.79-1.87,6.51,6.51,0,0,0,.44-2.7Z"/><path class="cls-2" d="M357.43,167.58v-22h2.7v22Z"/><path class="cls-2" d="M388.91,159.86l2.91.74a9.77,9.77,0,0,1-3.3,5.47,9,9,0,0,1-5.81,1.89,10.5,10.5,0,0,1-5.79-1.45,9,9,0,0,1-3.39-4.2,14.9,14.9,0,0,1-1.17-5.9,12.94,12.94,0,0,1,1.32-6,9,9,0,0,1,3.73-3.88,10.9,10.9,0,0,1,5.34-1.33,9.07,9.07,0,0,1,5.56,1.68,8.73,8.73,0,0,1,3.13,4.73l-2.86.67a6.79,6.79,0,0,0-2.23-3.49,5.92,5.92,0,0,0-3.66-1.1,7.13,7.13,0,0,0-4.24,1.22,6.36,6.36,0,0,0-2.39,3.26,12.93,12.93,0,0,0-.69,4.23,13.56,13.56,0,0,0,.81,4.9,6.15,6.15,0,0,0,2.55,3.13,7.12,7.12,0,0,0,3.74,1,6.26,6.26,0,0,0,4.14-1.41A7.2,7.2,0,0,0,388.91,159.86Z"/><path class="cls-2" d="M394.06,159.61q0-4.43,2.46-6.56a7.41,7.41,0,0,1,5-1.77,7.2,7.2,0,0,1,5.38,2.15,8.2,8.2,0,0,1,2.08,5.95,10.65,10.65,0,0,1-.92,4.85,6.58,6.58,0,0,1-2.69,2.74,7.81,7.81,0,0,1-3.85,1,7.14,7.14,0,0,1-5.41-2.15A8.55,8.55,0,0,1,394.06,159.61Zm2.77,0a6.82,6.82,0,0,0,1.34,4.59,4.45,4.45,0,0,0,6.71,0,7,7,0,0,0,1.33-4.67,6.55,6.55,0,0,0-1.34-4.48,4.44,4.44,0,0,0-6.7,0A6.77,6.77,0,0,0,396.83,159.61Z"/><path class="cls-2" d="M412.16,167.58V151.64h2.43v2.26a5.73,5.73,0,0,1,5.08-2.62,6.6,6.6,0,0,1,2.65.52,4.12,4.12,0,0,1,1.8,1.35,5.1,5.1,0,0,1,.85,2,15.53,15.53,0,0,1,.15,2.63v9.8h-2.71v-9.7a7.33,7.33,0,0,0-.31-2.47,2.61,2.61,0,0,0-1.12-1.3,3.51,3.51,0,0,0-1.88-.49,4.31,4.31,0,0,0-3,1.1c-.84.73-1.26,2.11-1.26,4.15v8.71Z"/><path class="cls-2" d="M439.66,161.74l2.66.35a6.88,6.88,0,0,1-2.23,4.3,6.52,6.52,0,0,1-4.41,1.55,6.84,6.84,0,0,1-5.26-2.14,8.69,8.69,0,0,1-2-6.13,11.11,11.11,0,0,1,.86-4.52,6,6,0,0,1,2.6-2.9,7.71,7.71,0,0,1,3.81-1,6.65,6.65,0,0,1,4.25,1.31,6,6,0,0,1,2.11,3.73l-2.62.41a4.41,4.41,0,0,0-1.33-2.42,3.45,3.45,0,0,0-2.31-.81,4.19,4.19,0,0,0-3.31,1.46,7,7,0,0,0-1.28,4.63,7.17,7.17,0,0,0,1.23,4.67,4,4,0,0,0,3.21,1.46,3.8,3.8,0,0,0,2.66-1A4.84,4.84,0,0,0,439.66,161.74Z"/><path class="cls-2" d="M444.65,148.68v-3.11h2.7v3.11Zm0,18.9V151.64h2.7v15.94Z"/><path class="cls-2" d="M462.38,162.45l2.79.34a6.83,6.83,0,0,1-2.45,3.8,8.3,8.3,0,0,1-10.11-.8,8.41,8.41,0,0,1-2.05-6,8.8,8.8,0,0,1,2.07-6.24,7,7,0,0,1,5.38-2.22,6.81,6.81,0,0,1,5.22,2.17,8.69,8.69,0,0,1,2,6.13c0,.16,0,.4,0,.72H453.35a6.12,6.12,0,0,0,1.49,4,4.42,4.42,0,0,0,3.33,1.4,4.15,4.15,0,0,0,2.54-.78A5.25,5.25,0,0,0,462.38,162.45Zm-8.88-4.37h8.91a5.34,5.34,0,0,0-1-3A4.13,4.13,0,0,0,458,153.5a4.25,4.25,0,0,0-3.13,1.25A4.91,4.91,0,0,0,453.5,158.08Z"/><path class="cls-2" d="M468.53,167.58V151.64H471v2.41a6.62,6.62,0,0,1,1.72-2.23,3,3,0,0,1,1.74-.54,5.25,5.25,0,0,1,2.77.87l-.93,2.5a4,4,0,0,0-2-.58,2.6,2.6,0,0,0-1.59.53,2.92,2.92,0,0,0-1,1.48,10.52,10.52,0,0,0-.45,3.15v8.35Z"/><path class="cls-2" d="M478.3,168.9l2.63.39a2.51,2.51,0,0,0,.92,1.77,4.48,4.48,0,0,0,2.74.75,4.84,4.84,0,0,0,2.9-.75,3.69,3.69,0,0,0,1.38-2.1,17.11,17.11,0,0,0,.2-3.47,5.53,5.53,0,0,1-4.42,2.09,6,6,0,0,1-5.09-2.37,9.14,9.14,0,0,1-1.8-5.69,10.58,10.58,0,0,1,.83-4.21,6.61,6.61,0,0,1,2.39-3,6.5,6.5,0,0,1,3.69-1.05,5.71,5.71,0,0,1,4.65,2.28v-1.92h2.49v13.78a13.24,13.24,0,0,1-.75,5.28,5.58,5.58,0,0,1-2.41,2.45,8.29,8.29,0,0,1-4,.9,7.67,7.67,0,0,1-4.61-1.28A4.36,4.36,0,0,1,478.3,168.9Zm2.24-9.58a6.91,6.91,0,0,0,1.25,4.58,4.11,4.11,0,0,0,6.24,0,6.7,6.7,0,0,0,1.26-4.5A6.51,6.51,0,0,0,488,155a4,4,0,0,0-3.13-1.49A3.89,3.89,0,0,0,481.8,155,6.48,6.48,0,0,0,480.54,159.32Z"/><path class="cls-2" d="M506.81,162.45l2.79.34a6.81,6.81,0,0,1-2.44,3.8,8.3,8.3,0,0,1-10.11-.8,8.41,8.41,0,0,1-2.05-6,8.8,8.8,0,0,1,2.07-6.24,7,7,0,0,1,5.37-2.22,6.81,6.81,0,0,1,5.23,2.17,8.68,8.68,0,0,1,2,6.13c0,.16,0,.4,0,.72H497.79a6.07,6.07,0,0,0,1.49,4,4.42,4.42,0,0,0,3.33,1.4,4.15,4.15,0,0,0,2.54-.78A5.17,5.17,0,0,0,506.81,162.45Zm-8.87-4.37h8.9a5.41,5.41,0,0,0-1-3,4.15,4.15,0,0,0-3.35-1.56,4.27,4.27,0,0,0-3.13,1.25A5,5,0,0,0,497.94,158.08Z"/><rect class="cls-3" x="1.59" width="199.94" height="29.64"/><rect class="cls-4" x="1.59" y="34.07" width="129.66" height="29.64"/><path class="cls-1" d="M9.81,22.77,4.71,3.54H7.32l2.93,12.61q.46,2,.81,3.93c.49-2,.78-3.24.86-3.55l3.66-13h3.07l2.76,9.73a52.72,52.72,0,0,1,1.49,6.81c.24-1.22.56-2.61,1-4.18l3-12.36h2.56L24.16,22.77H21.71L17.66,8.12c-.35-1.22-.55-2-.61-2.25-.2.88-.39,1.63-.56,2.25L12.41,22.77Z"/><path class="cls-1" d="M40.55,18.28l2.44.31a6,6,0,0,1-2.14,3.31,6.4,6.4,0,0,1-4,1.18A6.35,6.35,0,0,1,32,21.2a7.36,7.36,0,0,1-1.79-5.28A7.66,7.66,0,0,1,32,10.47a6.1,6.1,0,0,1,4.69-1.94,6,6,0,0,1,4.57,1.9,7.56,7.56,0,0,1,1.77,5.35c0,.14,0,.35,0,.63H32.67A5.34,5.34,0,0,0,34,19.92a3.84,3.84,0,0,0,2.91,1.22,3.63,3.63,0,0,0,2.21-.68A4.46,4.46,0,0,0,40.55,18.28ZM32.8,14.47h7.78a4.79,4.79,0,0,0-.9-2.64,3.6,3.6,0,0,0-2.92-1.36A3.73,3.73,0,0,0,34,11.56,4.29,4.29,0,0,0,32.8,14.47Z"/><path class="cls-1" d="M62.5,21.05A8.62,8.62,0,0,1,60,22.62a7.24,7.24,0,0,1-2.61.46A5,5,0,0,1,53.85,22a3.68,3.68,0,0,1-1.24-2.86,3.91,3.91,0,0,1,1.69-3.23A5.61,5.61,0,0,1,56,15.1a16.2,16.2,0,0,1,2.1-.36,21.39,21.39,0,0,0,4.2-.81c0-.32,0-.53,0-.62a2.62,2.62,0,0,0-.67-2,4,4,0,0,0-2.69-.8,4.25,4.25,0,0,0-2.46.58,3.55,3.55,0,0,0-1.17,2.07L53,12.81a5.78,5.78,0,0,1,1-2.39A4.51,4.51,0,0,1,56.14,9a9.24,9.24,0,0,1,3.16-.49A8.35,8.35,0,0,1,62.2,9,3.88,3.88,0,0,1,63.84,10a3.74,3.74,0,0,1,.73,1.61,13.09,13.09,0,0,1,.12,2.18v3.14a33.75,33.75,0,0,0,.15,4.17,5.24,5.24,0,0,0,.6,1.67H63A5.1,5.1,0,0,1,62.5,21.05Zm-.2-5.27a17,17,0,0,1-3.85.89,9.21,9.21,0,0,0-2.06.47,2.09,2.09,0,0,0-.93.77,2.07,2.07,0,0,0,.39,2.69,3.05,3.05,0,0,0,2.09.63,4.9,4.9,0,0,0,2.42-.59A3.63,3.63,0,0,0,61.92,19a5.59,5.59,0,0,0,.38-2.36Z"/><path class="cls-1" d="M68.32,22.77V8.84h2.13V11A5.73,5.73,0,0,1,72,9a2.57,2.57,0,0,1,1.51-.47,4.57,4.57,0,0,1,2.43.76l-.81,2.19A3.41,3.41,0,0,0,73.35,11a2.23,2.23,0,0,0-1.39.46,2.44,2.44,0,0,0-.88,1.29,9,9,0,0,0-.4,2.76v7.29Z"/><path class="cls-1" d="M86.83,18.28l2.43.31a5.89,5.89,0,0,1-2.13,3.31,6.41,6.41,0,0,1-4,1.18A6.33,6.33,0,0,1,78.3,21.2a7.31,7.31,0,0,1-1.79-5.28,7.66,7.66,0,0,1,1.81-5.45A6.09,6.09,0,0,1,83,8.53a5.94,5.94,0,0,1,4.56,1.9,7.56,7.56,0,0,1,1.77,5.35c0,.14,0,.35,0,.63H78.94a5.34,5.34,0,0,0,1.3,3.51,3.84,3.84,0,0,0,2.91,1.22,3.64,3.64,0,0,0,2.22-.68A4.53,4.53,0,0,0,86.83,18.28Zm-7.75-3.81h7.77A4.71,4.71,0,0,0,86,11.83,3.61,3.61,0,0,0,83,10.47a3.74,3.74,0,0,0-2.74,1.09A4.23,4.23,0,0,0,79.08,14.47Z"/><path class="cls-1" d="M99.69,22.77V3.54h2.36v6.9a5.28,5.28,0,0,1,4.17-1.91,5.59,5.59,0,0,1,2.69.61,3.58,3.58,0,0,1,1.63,1.68,7.75,7.75,0,0,1,.49,3.12v8.83h-2.36V13.94a3.58,3.58,0,0,0-.77-2.57,2.84,2.84,0,0,0-2.17-.81,3.84,3.84,0,0,0-2,.54,3.09,3.09,0,0,0-1.32,1.48,6.84,6.84,0,0,0-.39,2.57v7.62Z"/><path class="cls-1" d="M123.71,21.05a8.62,8.62,0,0,1-2.52,1.57,7.22,7.22,0,0,1-2.6.46A5.05,5.05,0,0,1,115.06,22a3.7,3.7,0,0,1-1.23-2.86,3.78,3.78,0,0,1,.46-1.87,3.83,3.83,0,0,1,1.22-1.36,5.61,5.61,0,0,1,1.7-.77,16.2,16.2,0,0,1,2.1-.36,21.52,21.52,0,0,0,4.21-.81c0-.32,0-.53,0-.62a2.58,2.58,0,0,0-.67-2,4,4,0,0,0-2.69-.8,4.25,4.25,0,0,0-2.46.58,3.55,3.55,0,0,0-1.17,2.07l-2.31-.32a5.78,5.78,0,0,1,1-2.39A4.51,4.51,0,0,1,117.35,9a9.24,9.24,0,0,1,3.16-.49,8.35,8.35,0,0,1,2.9.42A3.88,3.88,0,0,1,125.05,10a3.74,3.74,0,0,1,.73,1.61,13.09,13.09,0,0,1,.12,2.18v3.14a33.75,33.75,0,0,0,.15,4.17,5.24,5.24,0,0,0,.6,1.67h-2.47A5.1,5.1,0,0,1,123.71,21.05Zm-.19-5.27a17.2,17.2,0,0,1-3.86.89,9.21,9.21,0,0,0-2.06.47,2.09,2.09,0,0,0-.93.77,2.07,2.07,0,0,0,.39,2.69,3.05,3.05,0,0,0,2.09.63,5,5,0,0,0,2.43-.59A3.74,3.74,0,0,0,123.14,19a5.75,5.75,0,0,0,.38-2.36Z"/><path class="cls-1" d="M129.56,28.1V8.84h2.15v1.81a5.24,5.24,0,0,1,1.72-1.59,4.65,4.65,0,0,1,2.32-.53,5.45,5.45,0,0,1,3.15.92A5.66,5.66,0,0,1,141,12a9.56,9.56,0,0,1,.69,3.67,9.32,9.32,0,0,1-.77,3.85,5.75,5.75,0,0,1-2.23,2.62,5.69,5.69,0,0,1-3.07.91,4.37,4.37,0,0,1-2.12-.5,4.89,4.89,0,0,1-1.54-1.25V28.1Zm2.14-12.22a6,6,0,0,0,1.09,4,3.34,3.34,0,0,0,2.63,1.28,3.42,3.42,0,0,0,2.7-1.33,6.35,6.35,0,0,0,1.12-4.12,6.15,6.15,0,0,0-1.1-4,3.29,3.29,0,0,0-2.61-1.32,3.39,3.39,0,0,0-2.67,1.41A6.25,6.25,0,0,0,131.7,15.88Z"/><path class="cls-1" d="M144.5,28.1V8.84h2.15v1.81a5.22,5.22,0,0,1,1.71-1.59,4.69,4.69,0,0,1,2.33-.53,5.44,5.44,0,0,1,3.14.92A5.6,5.6,0,0,1,155.89,12a9.56,9.56,0,0,1,.7,3.67,9.32,9.32,0,0,1-.77,3.85,5.81,5.81,0,0,1-2.23,2.62,5.69,5.69,0,0,1-3.07.91,4.34,4.34,0,0,1-2.12-.5,4.78,4.78,0,0,1-1.54-1.25V28.1Zm2.13-12.22a6.1,6.1,0,0,0,1.09,4,3.37,3.37,0,0,0,5.33-.05,6.3,6.3,0,0,0,1.12-4.12,6.15,6.15,0,0,0-1.09-4,3.3,3.3,0,0,0-2.62-1.32,3.42,3.42,0,0,0-2.67,1.41A6.31,6.31,0,0,0,146.63,15.88Z"/><path class="cls-1" d="M159.33,28.13l-.27-2.21a5.73,5.73,0,0,0,1.36.2,2.5,2.5,0,0,0,1.25-.26,2.1,2.1,0,0,0,.78-.73,11.29,11.29,0,0,0,.72-1.76c0-.13.11-.32.21-.58L158.09,8.84h2.55l2.9,8.07c.37,1,.71,2.09,1,3.22a30.6,30.6,0,0,1,1-3.17l3-8.12h2.36L165.56,23a26.35,26.35,0,0,1-1.33,3.16,4.76,4.76,0,0,1-1.44,1.72,3.42,3.42,0,0,1-1.94.54A4.77,4.77,0,0,1,159.33,28.13Z"/><path class="cls-1" d="M185.47,20.66l.34,2.08A8.64,8.64,0,0,1,184,23a4,4,0,0,1-2-.4,2.33,2.33,0,0,1-1-1.07,8.55,8.55,0,0,1-.29-2.79v-8H179V8.84h1.73V5.39L183.1,4V8.84h2.37v1.84H183.1v8.14a4.28,4.28,0,0,0,.12,1.3,1.07,1.07,0,0,0,.41.46,1.63,1.63,0,0,0,.81.17A7.67,7.67,0,0,0,185.47,20.66Z"/><path class="cls-1" d="M186.9,15.8q0-3.86,2.15-5.73a6.49,6.49,0,0,1,4.38-1.54,6.24,6.24,0,0,1,4.7,1.88,7.18,7.18,0,0,1,1.82,5.2,9.2,9.2,0,0,1-.81,4.23,5.73,5.73,0,0,1-2.34,2.39,6.83,6.83,0,0,1-3.37.85,6.24,6.24,0,0,1-4.72-1.87A7.46,7.46,0,0,1,186.9,15.8Zm2.43,0a5.93,5.93,0,0,0,1.17,4,3.88,3.88,0,0,0,5.86,0,6,6,0,0,0,1.16-4.07,5.77,5.77,0,0,0-1.17-3.92,3.75,3.75,0,0,0-2.92-1.33,3.71,3.71,0,0,0-2.93,1.33A5.87,5.87,0,0,0,189.33,15.8Z"/><path class="cls-1" d="M6.15,55V35.77H8.52v6.9a5.26,5.26,0,0,1,4.16-1.92,5.68,5.68,0,0,1,2.69.61A3.62,3.62,0,0,1,17,43.05a7.93,7.93,0,0,1,.49,3.12V55H15.14V46.17a3.67,3.67,0,0,0-.77-2.58,2.83,2.83,0,0,0-2.17-.8,3.82,3.82,0,0,0-2,.54,3,3,0,0,0-1.32,1.48,6.8,6.8,0,0,0-.39,2.57V55Z"/><path class="cls-1" d="M30.62,50.51l2.44.3a5.92,5.92,0,0,1-2.13,3.32,6.43,6.43,0,0,1-4,1.18,6.4,6.4,0,0,1-4.85-1.88,7.39,7.39,0,0,1-1.79-5.28,7.75,7.75,0,0,1,1.81-5.46,6.15,6.15,0,0,1,4.7-1.94,6,6,0,0,1,4.56,1.91A7.54,7.54,0,0,1,33.14,48c0,.13,0,.34,0,.62H22.74A5.36,5.36,0,0,0,24,52.15,3.88,3.88,0,0,0,27,53.37a3.64,3.64,0,0,0,2.22-.68A4.5,4.5,0,0,0,30.62,50.51Zm-7.75-3.82h7.78a4.72,4.72,0,0,0-.89-2.63,3.63,3.63,0,0,0-2.93-1.37,3.77,3.77,0,0,0-2.73,1.09A4.33,4.33,0,0,0,22.87,46.69Z"/><path class="cls-1" d="M36,55V35.77h2.36V55Z"/><path class="cls-1" d="M42,60.33V41.07h2.15v1.81a5.39,5.39,0,0,1,1.72-1.6,4.76,4.76,0,0,1,2.32-.53,5.53,5.53,0,0,1,3.15.92,5.69,5.69,0,0,1,2.06,2.59,9.56,9.56,0,0,1,.69,3.67,9.38,9.38,0,0,1-.76,3.85,5.88,5.88,0,0,1-2.23,2.62,5.72,5.72,0,0,1-3.08.91,4.48,4.48,0,0,1-2.12-.5,4.79,4.79,0,0,1-1.54-1.26v6.78Zm2.14-12.22a6,6,0,0,0,1.09,4,3.32,3.32,0,0,0,2.63,1.29A3.42,3.42,0,0,0,50.55,52a6.31,6.31,0,0,0,1.12-4.13,6.14,6.14,0,0,0-1.1-4A3.28,3.28,0,0,0,48,42.6,3.39,3.39,0,0,0,45.29,44,6.34,6.34,0,0,0,44.13,48.11Z"/><path class="cls-1" d="M64.28,60.36,64,58.14a5.31,5.31,0,0,0,1.35.21,2.63,2.63,0,0,0,1.26-.26,2.21,2.21,0,0,0,.78-.74,13.48,13.48,0,0,0,.72-1.75c0-.13.11-.33.21-.58l-5.29-14H65.6l2.89,8.06a33,33,0,0,1,1,3.23,32.39,32.39,0,0,1,1-3.17l3-8.12h2.36l-5.3,14.16a29.57,29.57,0,0,1-1.32,3.16,4.64,4.64,0,0,1-1.44,1.71,3.45,3.45,0,0,1-1.94.55A4.82,4.82,0,0,1,64.28,60.36Z"/><path class="cls-1" d="M76.94,48q0-3.87,2.15-5.73a6.5,6.5,0,0,1,4.38-1.55,6.25,6.25,0,0,1,4.69,1.88A7.16,7.16,0,0,1,90,47.84a9.12,9.12,0,0,1-.81,4.22,5.72,5.72,0,0,1-2.35,2.4,6.9,6.9,0,0,1-3.36.85,6.27,6.27,0,0,1-4.73-1.88A7.49,7.49,0,0,1,76.94,48Zm2.42,0a5.94,5.94,0,0,0,1.17,4,3.88,3.88,0,0,0,5.86,0A6.06,6.06,0,0,0,87.56,48,5.76,5.76,0,0,0,86.39,44a3.9,3.9,0,0,0-5.86,0A5.91,5.91,0,0,0,79.36,48Z"/><path class="cls-1" d="M101.88,55V53a5.1,5.1,0,0,1-4.42,2.36,5.7,5.7,0,0,1-2.3-.47,3.87,3.87,0,0,1-1.59-1.19,4.56,4.56,0,0,1-.73-1.75,12.65,12.65,0,0,1-.14-2.2V41.07h2.36v7.72a14.54,14.54,0,0,0,.14,2.49,2.52,2.52,0,0,0,1,1.47,2.94,2.94,0,0,0,1.78.53,4,4,0,0,0,2-.55,2.94,2.94,0,0,0,1.31-1.48,7.35,7.35,0,0,0,.39-2.72V41.07H104V55Z"/><path class="cls-1" d="M108.36,55V52.31H111V55Z"/><path class="cls-1" d="M115.82,55V52.31h2.69V55Z"/><path class="cls-1" d="M123.28,55V52.31H126V55Z"/><path class="cls-1" d="M23.24,107.45l3,.77a10.2,10.2,0,0,1-3.43,5.7,9.49,9.49,0,0,1-6.07,2,11,11,0,0,1-6-1.51A9.39,9.39,0,0,1,7.2,110,15.59,15.59,0,0,1,6,103.85a13.59,13.59,0,0,1,1.37-6.26,9.37,9.37,0,0,1,3.9-4,11.34,11.34,0,0,1,5.57-1.39,9.48,9.48,0,0,1,5.79,1.75,9.07,9.07,0,0,1,3.27,4.94l-3,.7a7.08,7.08,0,0,0-2.32-3.65,6.17,6.17,0,0,0-3.82-1.14A7.4,7.4,0,0,0,12.33,96a6.71,6.71,0,0,0-2.5,3.4,13.77,13.77,0,0,0-.72,4.41,14,14,0,0,0,.86,5.11,6.35,6.35,0,0,0,2.65,3.27,7.45,7.45,0,0,0,3.9,1.08,6.54,6.54,0,0,0,4.32-1.47A7.55,7.55,0,0,0,23.24,107.45Z"/><path class="cls-1" d="M29.66,115.5v-23h2.81v8.24a6.3,6.3,0,0,1,5-2.29,6.79,6.79,0,0,1,3.21.73,4.3,4.3,0,0,1,2,2A9.32,9.32,0,0,1,43.2,105V115.5H40.38V105a4.31,4.31,0,0,0-.92-3.08,3.4,3.4,0,0,0-2.59-1,4.58,4.58,0,0,0-2.35.65,3.69,3.69,0,0,0-1.58,1.76,8.14,8.14,0,0,0-.47,3.07v9.1Z"/><path class="cls-1" d="M58.34,113.45a10.5,10.5,0,0,1-3,1.87,8.66,8.66,0,0,1-3.11.55A6,6,0,0,1,48,114.53a4.39,4.39,0,0,1-1.48-3.42,4.56,4.56,0,0,1,.56-2.23,4.66,4.66,0,0,1,1.46-1.62,6.77,6.77,0,0,1,2-.92,20.18,20.18,0,0,1,2.51-.43,25.28,25.28,0,0,0,5-1c0-.38,0-.63,0-.73a3.13,3.13,0,0,0-.8-2.43,4.7,4.7,0,0,0-3.21-1,5,5,0,0,0-2.93.69,4.23,4.23,0,0,0-1.4,2.47L47,103.61a6.68,6.68,0,0,1,1.24-2.85,5.34,5.34,0,0,1,2.49-1.68,11.09,11.09,0,0,1,3.77-.59A10.09,10.09,0,0,1,58,99a4.68,4.68,0,0,1,2,1.26,4.47,4.47,0,0,1,.87,1.92,15.25,15.25,0,0,1,.14,2.6v3.76a39.83,39.83,0,0,0,.18,5,6.25,6.25,0,0,0,.72,2h-3A6,6,0,0,1,58.34,113.45Zm-.24-6.3a20.79,20.79,0,0,1-4.6,1.07,10.27,10.27,0,0,0-2.46.56,2.41,2.41,0,0,0-1.11.92,2.49,2.49,0,0,0,.46,3.21,3.68,3.68,0,0,0,2.5.75,5.77,5.77,0,0,0,2.9-.71,4.38,4.38,0,0,0,1.86-2,6.83,6.83,0,0,0,.45-2.82Z"/><path class="cls-1" d="M71.48,113l.4,2.49a10.92,10.92,0,0,1-2.13.25,4.88,4.88,0,0,1-2.38-.49A2.72,2.72,0,0,1,66.18,114a10,10,0,0,1-.34-3.32v-9.57H63.77V98.87h2.07V94.75l2.8-1.69v5.81h2.84v2.19H68.64v9.72a4.85,4.85,0,0,0,.15,1.55,1.14,1.14,0,0,0,.49.55,1.8,1.8,0,0,0,1,.21A9.94,9.94,0,0,0,71.48,113Z"/><path class="cls-1" d="M86.21,115.5,81.12,98.87H84l2.65,9.6,1,3.57c0-.18.32-1.32.86-3.43l2.64-9.74h2.9l2.49,9.64.83,3.18,1-3.21,2.85-9.61h2.74L98.74,115.5H95.81l-2.65-10-.64-2.84-3.37,12.8Z"/><path class="cls-1" d="M106.31,95.78V92.54h2.82v3.24Zm0,19.72V98.87h2.82V115.5Z"/><path class="cls-1" d="M119.58,113l.4,2.49a10.92,10.92,0,0,1-2.13.25,4.88,4.88,0,0,1-2.38-.49,2.72,2.72,0,0,1-1.19-1.28,10,10,0,0,1-.34-3.32v-9.57h-2.07V98.87h2.07V94.75l2.8-1.69v5.81h2.84v2.19h-2.84v9.72a4.85,4.85,0,0,0,.15,1.55,1.14,1.14,0,0,0,.49.55,1.8,1.8,0,0,0,1,.21A9.94,9.94,0,0,0,119.58,113Z"/><path class="cls-1" d="M122.33,115.5v-23h2.82v8.24a6.27,6.27,0,0,1,5-2.29,6.79,6.79,0,0,1,3.21.73,4.3,4.3,0,0,1,1.95,2,9.35,9.35,0,0,1,.58,3.73V115.5h-2.81V105a4.36,4.36,0,0,0-.92-3.08,3.4,3.4,0,0,0-2.59-1,4.61,4.61,0,0,0-2.36.65,3.66,3.66,0,0,0-1.57,1.76,8.14,8.14,0,0,0-.47,3.07v9.1Z"/><path class="cls-1" d="M148,107.18q0-4.62,2.57-6.84a7.76,7.76,0,0,1,5.23-1.85,7.46,7.46,0,0,1,5.61,2.25A8.56,8.56,0,0,1,163.6,107a11,11,0,0,1-1,5,6.81,6.81,0,0,1-2.8,2.85,8.17,8.17,0,0,1-4,1,7.43,7.43,0,0,1-5.64-2.24Q148,111.4,148,107.18Zm2.9,0a7.15,7.15,0,0,0,1.39,4.79,4.66,4.66,0,0,0,7,0,7.26,7.26,0,0,0,1.4-4.87,6.9,6.9,0,0,0-1.4-4.68,4.67,4.67,0,0,0-7,0A7.07,7.07,0,0,0,150.92,107.18Z"/><path class="cls-1" d="M177.8,115.5v-2.45a6.07,6.07,0,0,1-5.27,2.82,6.83,6.83,0,0,1-2.75-.56,4.53,4.53,0,0,1-1.89-1.42,5.08,5.08,0,0,1-.87-2.09,13.68,13.68,0,0,1-.18-2.63V98.87h2.82v9.22a17.14,17.14,0,0,0,.17,3,3,3,0,0,0,1.13,1.74,3.54,3.54,0,0,0,2.13.64,4.66,4.66,0,0,0,2.38-.65,3.7,3.7,0,0,0,1.58-1.77,9.08,9.08,0,0,0,.46-3.25V98.87h2.82V115.5Z"/><path class="cls-1" d="M184.71,115.5V98.87h2.54v2.52A6.69,6.69,0,0,1,189,99.06a3.11,3.11,0,0,1,1.81-.57,5.52,5.52,0,0,1,2.89.91l-1,2.62a4,4,0,0,0-2.06-.62,2.68,2.68,0,0,0-1.66.56A3,3,0,0,0,188,103.5a10.81,10.81,0,0,0-.47,3.29v8.71Z"/></g></g></svg>